# xmcd
#
# Track frame offsets:
#	150
#	18554
#	36084
#	58688
#	74234
#	90058
#	106563
#	125386
#	144918
#	160932
#	182608
#	204209
#	220691
#	239063
#	259425
#	276903
#
# Disc length: 3951 seconds
#
# Revision: 1
# Processed by: cddbd v1.5.2PL0 Copyright (c) Steve Scherf et al.
# Submitted via: audiograbber 1.83.01
#
DISCID=e20f6d10
DTITLE=Various Artist - KBA33522
DYEAR=2004
DGENRE=Country
TTITLE0=ALAN JACKSON w Jimmy Buffet - IT'S FIVE O'CLOCK SOMEWHERE
TTITLE1=BRAD PAISLEY - CELEBRITY
TTITLE2=SHANIA TWAIN - FOREVER AND FOR ALWAYS
TTITLE3=GEORGE STRAIT - TELL ME SOMETHING BAD ABOUT TULSA
TTITLE4=BRIAN MCCOMAS - 99.9% Sure (I've Never Been Here Before)
TTITLE5=KENNY CHESNEY - NO SHOES, NO SHIRT, NO PROBLEMS
TTITLE6=MARTINA MCBRIDE - CONCRETE ANGEL
TTITLE7=TIM MCGRAW - SHE'S MY KIND OF RAIN
TTITLE8=TOBY KEITH W/ WILLIE NELSON - BEER FOR MY HORSES
TTITLE9=KEITH URBAN - RAINING ON SUNDAY
TTITLE10=DIXIE CHICKS - TRAVELIN' SOLDIER
TTITLE11=LONESTAR - MY FRONT PORCH LOOKING IN
TTITLE12=BLAKE SHELTON - THE BABY
TTITLE13=BROOKS and DUNN - RED DIRT ROAD
TTITLE14=TERRI CLARK - THREE MISSISSIPPI
TTITLE15=SARA EVANS - BACKSEAT OF A GREYHOUND BUS
EXTD=
EXTT0=
EXTT1=
EXTT2=
EXTT3=
EXTT4=
EXTT5=
EXTT6=
EXTT7=
EXTT8=
EXTT9=
EXTT10=
EXTT11=
EXTT12=
EXTT13=
EXTT14=
EXTT15=
PLAYORDER=
